<svg width="200" height="200" viewBox="0 0 100 100" xmlns="http://www.w3.org/2000/svg"><path d="M35 20 C25 30, 35 35, 30 40 C33 35, 25 30, 35 20" fill="white" /><path d="M65 20 C75 30, 65 35, 70 40 C67 35, 75 30, 65 20" fill="white" /><rect x="49" y="30" width="2" height="30" fill="white" /><path d="M45 60 C40 65, 45 70, 40 75" fill="none" stroke="white" stroke_width="2" /><path d="M55 60 C60 65, 55 70, 60 75" fill="none" stroke="white" stroke_width="2" /><path d="M50 60 C50 65, 50 70, 50 75" fill="none" stroke="white" stroke_width="2" /><text x="50" y="55" fill="white" font_size="6" text_anchor="middle" font_family="Arial" font_weight="bold">AGROINFO KG</text></svg>
